<svg xmlns="http://www.w3.org/2000/svg" width="256" height="256" viewBox="0 0 256 256">
  <rect width="256" height="256" rx="48" fill="#1c1f1a"/>
  <g transform="translate(28 28) scale(2.0)" stroke="#3a3f35" stroke-width="0.6" opacity="0.8">
    <line x1="14" y1="14" x2="86" y2="14"/>
    <line x1="14" y1="32" x2="86" y2="32"/>
    <line x1="14" y1="50" x2="86" y2="50"/>
    <line x1="14" y1="68" x2="86" y2="68"/>
    <line x1="14" y1="86" x2="86" y2="86"/>
    <line x1="14" y1="14" x2="14" y2="86"/>
    <line x1="32" y1="14" x2="32" y2="86"/>
    <line x1="50" y1="14" x2="50" y2="86"/>
    <line x1="68" y1="14" x2="68" y2="86"/>
    <line x1="86" y1="14" x2="86" y2="86"/>
  </g>
  <g transform="translate(28 28) scale(2.0)" fill="#7a7d70" opacity="0.55">
    <circle cx="14" cy="14" r="2.5"/>
    <circle cx="86" cy="14" r="2.5"/>
    <circle cx="32" cy="32" r="2.5"/>
    <circle cx="50" cy="32" r="2.5"/>
    <circle cx="68" cy="32" r="2.5"/>
    <circle cx="32" cy="50" r="2.5"/>
    <circle cx="32" cy="68" r="2.5"/>
    <circle cx="50" cy="68" r="2.5"/>
    <circle cx="68" cy="68" r="2.5"/>
    <circle cx="14" cy="86" r="2.5"/>
    <circle cx="86" cy="86" r="2.5"/>
  </g>
  <g transform="translate(28 28) scale(2.0)" fill="#e8e5d8">
    <circle cx="32" cy="14" r="5.8"/>
    <circle cx="50" cy="14" r="5.8"/>
    <circle cx="68" cy="14" r="5.8"/>
    <circle cx="14" cy="32" r="5.8"/>
    <circle cx="86" cy="32" r="5.8"/>
    <circle cx="14" cy="50" r="5.8"/>
    <circle cx="50" cy="50" r="5.8"/>
    <circle cx="68" cy="50" r="5.8"/>
    <circle cx="14" cy="68" r="5.8"/>
    <circle cx="86" cy="68" r="5.8"/>
    <circle cx="32" cy="86" r="5.8"/>
    <circle cx="50" cy="86" r="5.8"/>
    <circle cx="68" cy="86" r="5.8"/>
  </g>
  <circle cx="200" cy="128" r="11.6" fill="#7bf37b"/>
</svg>
