<svg xmlns="http://www.w3.org/2000/svg" width="24" height="24" viewBox="0 0 24 24" fill="currentColor">
  <circle cx="4" cy="4" r="2"/>
  <circle cx="12" cy="4" r="2"/>
  <circle cx="20" cy="4" r="2"/>
  <circle cx="4" cy="12" r="2"/>
  <circle cx="12" cy="12" r="2.4"/>
  <circle cx="20" cy="12" r="2"/>
  <circle cx="4" cy="20" r="2"/>
  <circle cx="12" cy="20" r="2"/>
  <circle cx="20" cy="20" r="2"/>
  <path d="M6 4h4M14 4h4M6 12h4M14 12h4M6 20h4M14 20h4M4 6v4M4 14v4M12 6v4M12 14v4M20 6v4M20 14v4" stroke="currentColor" stroke-width="0.8" opacity="0.55"/>
</svg>
